# Blender v2.77 (sub 0) OBJ File: 'Test-warmup.blend'
# www.blender.org
o Big_Red_Button_Cylinder.007
v 0.434982 1.045280 -0.038989
v 0.463631 1.045280 -0.038989
v 0.434982 1.025785 -0.033765
v 0.463631 1.025785 -0.033765
v 0.434982 1.011514 -0.019494
v 0.463631 1.011514 -0.019494
v 0.434982 1.006291 0.000000
v 0.463631 1.006291 0.000000
v 0.434982 1.011514 0.019494
v 0.463631 1.011514 0.019494
v 0.434982 1.025785 0.033765
v 0.463631 1.025785 0.033765
v 0.434982 1.045280 0.038989
v 0.463631 1.045280 0.038989
v 0.434982 1.064774 0.033765
v 0.463631 1.064774 0.033765
v 0.434982 1.079045 0.019494
v 0.463631 1.079045 0.019494
v 0.434982 1.084269 0.000000
v 0.463631 1.084269 0.000000
v 0.434982 1.079045 -0.019494
v 0.463631 1.079045 -0.019494
v 0.434982 1.064774 -0.033765
v 0.463631 1.064774 -0.033765
v 0.463631 1.018533 -0.046327
v 0.463631 1.045280 -0.053494
v 0.463631 0.998952 -0.026747
v 0.463631 0.991786 0.000000
v 0.463631 0.998952 0.026747
v 0.463631 1.018533 0.046327
v 0.463631 1.045280 0.053494
v 0.463631 1.072027 0.046327
v 0.463631 1.091607 0.026747
v 0.463631 1.098774 0.000000
v 0.463631 1.091607 -0.026747
v 0.463631 1.072027 -0.046327
v 0.477275 1.018533 -0.046327
v 0.477275 1.045280 -0.053494
v 0.477275 0.998952 -0.026747
v 0.477275 0.991786 0.000000
v 0.477275 0.998952 0.026747
v 0.477275 1.018533 0.046327
v 0.477275 1.045280 0.053494
v 0.477275 1.072027 0.046327
v 0.477275 1.091607 0.026747
v 0.477275 1.098774 0.000000
v 0.477275 1.091607 -0.026747
v 0.477275 1.072027 -0.046327
v 0.490750 1.021830 -0.040617
v 0.490750 1.045280 -0.046900
v 0.490750 1.004663 -0.023450
v 0.490750 0.998380 0.000000
v 0.490750 1.004663 0.023450
v 0.490750 1.021830 0.040617
v 0.490750 1.045280 0.046900
v 0.490750 1.068730 0.040617
v 0.490750 1.085896 0.023450
v 0.490750 1.092180 0.000000
v 0.490750 1.085896 -0.023450
v 0.490750 1.068730 -0.040617
v 0.497364 1.045280 0.000000
v 0.497364 1.032460 -0.022204
v 0.497364 1.045280 -0.025639
v 0.497364 1.023076 -0.012820
v 0.497364 1.019641 0.000000
v 0.497364 1.023076 0.012820
v 0.497364 1.032460 0.022204
v 0.497364 1.045280 0.025639
v 0.497364 1.058099 0.022204
v 0.497364 1.067484 0.012820
v 0.497364 1.070919 0.000000
v 0.497364 1.067484 -0.012819
v 0.497364 1.058099 -0.022204
vt 0.5117 0.4514
vt 0.5905 0.1719
vt 0.7462 0.2602
vt 0.5365 0.4632
vt 0.8364 0.4141
vt 0.5523 0.4861
vt 0.8373 0.5923
vt 0.5545 0.5141
vt 0.7486 0.7470
vt 0.5426 0.5395
vt 0.5940 0.8369
vt 0.5203 0.5559
vt 0.4148 0.8377
vt 0.4937 0.5587
vt 0.2597 0.7491
vt 0.4696 0.5470
vt 0.1701 0.5956
vt 0.4547 0.5239
vt 0.1691 0.4184
vt 0.4530 0.4953
vt 0.2571 0.2635
vt 0.4630 0.4697
vt 0.9582 0.6268
vt 0.8360 0.8369
vt 0.4114 0.1731
vt 0.4848 0.4537
vt 0.4494 0.2904
vt 0.5604 0.2904
vt 0.6566 0.3456
vt 0.7121 0.4411
vt 0.7121 0.5515
vt 0.6566 0.6470
vt 0.5604 0.7022
vt 0.4494 0.7022
vt 0.3533 0.6470
vt 0.2978 0.5515
vt 0.2978 0.4411
vt 0.3533 0.3456
vt 0.9847 0.3739
vt 0.9847 0.6301
vt 0.7876 0.5817
vt 0.7897 0.4299
vt 0.3806 0.0519
vt 0.6251 0.0516
vt 0.8368 0.1733
vt 0.9586 0.3840
vt 0.1695 0.1740
vt 0.0485 0.3842
vt 0.0485 0.6255
vt 0.1692 0.8354
vt 0.3799 0.9576
vt 0.6243 0.9582
vt 0.6663 0.5524
vt 0.6699 0.4648
vt 0.1512 0.8521
vt 0.0223 0.6301
vt 0.2173 0.5741
vt 0.2919 0.7067
vt 0.1512 0.1519
vt 0.3745 0.0238
vt 0.4309 0.2176
vt 0.2975 0.2918
vt 0.8558 0.1519
vt 0.7150 0.2973
vt 0.3745 0.9802
vt 0.4232 0.7844
vt 0.8558 0.8521
vt 0.6324 0.9802
vt 0.5761 0.7864
vt 0.7094 0.7122
vt 0.0223 0.3739
vt 0.2193 0.4223
vt 0.6324 0.0238
vt 0.5837 0.2196
vt 0.4660 0.3366
vt 0.5542 0.3402
vt 0.5306 0.4210
vt 0.4862 0.4184
vt 0.3371 0.5392
vt 0.3781 0.6169
vt 0.3878 0.3774
vt 0.6289 0.3871
vt 0.4527 0.6638
vt 0.5409 0.6674
vt 0.6191 0.6266
vt 0.3407 0.4516
vt 0.5850 0.5289
vt 0.5876 0.4849
vt 0.4194 0.5191
vt 0.4393 0.5586
vt 0.4465 0.4382
vt 0.5677 0.4454
vt 0.4764 0.5830
vt 0.5207 0.5856
vt 0.5605 0.5658
vt 0.4220 0.4750
vt 0.5035 0.5020
vn 0.0000 -0.2588 -0.9659
vn 0.0000 -0.7071 -0.7071
vn 0.0000 -0.9659 -0.2588
vn 0.0000 -0.9659 0.2588
vn 0.0000 -0.7071 0.7071
vn 0.0000 -0.2588 0.9659
vn 0.0000 0.2588 0.9659
vn 0.0000 0.7071 0.7071
vn 0.0000 0.9659 0.2588
vn 0.0000 0.9659 -0.2588
vn -1.0000 -0.0000 0.0000
vn 0.0000 0.7071 -0.7071
vn 0.0000 0.2588 -0.9659
vn 0.4273 -0.8733 -0.2340
vn 0.9519 -0.0793 0.2961
vn 0.4273 0.8733 -0.2340
vn 0.4273 0.2340 0.8733
vn 0.4273 -0.8733 0.2340
vn 0.4273 0.6393 -0.6393
vn 0.4273 -0.2340 -0.8733
vn 0.4273 0.6393 0.6393
vn 0.4273 -0.6393 0.6393
vn 0.4273 0.2340 -0.8733
vn 0.4273 -0.6393 -0.6393
vn 0.4273 0.8733 0.2340
vn 0.4273 -0.2340 0.8733
vn 0.9519 -0.2961 -0.0793
vn 0.9519 0.2961 -0.0793
vn 0.9519 0.0793 0.2961
vn 0.9519 -0.2961 0.0793
vn 0.9519 0.2168 -0.2168
vn 0.9519 -0.0793 -0.2961
vn 0.9519 0.2168 0.2168
vn 0.9519 -0.2168 0.2168
vn 0.9519 0.0793 -0.2961
vn 0.9519 -0.2168 -0.2168
vn 0.9519 0.2961 0.0793
vn 1.0000 0.0000 0.0000
s off
f 1/1/1 2/2/1 4/3/1 3/4/1
f 3/4/2 4/3/2 6/5/2 5/6/2
f 5/6/3 6/5/3 8/7/3 7/8/3
f 7/8/4 8/7/4 10/9/4 9/10/4
f 9/10/5 10/9/5 12/11/5 11/12/5
f 11/12/6 12/11/6 14/13/6 13/14/6
f 13/14/7 14/13/7 16/15/7 15/16/7
f 15/16/8 16/15/8 18/17/8 17/18/8
f 17/18/9 18/17/9 20/19/9 19/20/9
f 19/20/10 20/19/10 22/21/10 21/22/10
f 10/9/11 8/7/11 28/23/11 29/24/11
f 21/22/12 22/21/12 24/25/12 23/26/12
f 23/26/13 24/25/13 2/2/13 1/1/13
f 1/27/11 3/28/11 5/29/11 7/30/11 9/31/11 11/32/11 13/33/11 15/34/11 17/35/11 19/36/11 21/37/11 23/38/11
f 28/39/3 27/40/3 39/41/3 40/42/3
f 2/2/11 24/25/11 36/43/11 26/44/11
f 4/3/11 2/2/11 26/44/11 25/45/11
f 8/7/11 6/5/11 27/46/11 28/23/11
f 24/25/11 22/21/11 35/47/11 36/43/11
f 6/5/11 4/3/11 25/45/11 27/46/11
f 22/21/11 20/19/11 34/48/11 35/47/11
f 20/19/11 18/17/11 33/49/11 34/48/11
f 18/17/11 16/15/11 32/50/11 33/49/11
f 16/15/11 14/13/11 31/51/11 32/50/11
f 14/13/11 12/11/11 30/52/11 31/51/11
f 12/11/11 10/9/11 29/24/11 30/52/11
f 40/42/14 39/41/14 51/53/14 52/54/14
f 35/55/10 34/56/10 46/57/10 47/58/10
f 32/59/7 31/60/7 43/61/7 44/62/7
f 29/63/4 28/39/4 40/42/4 41/64/4
f 36/65/12 35/55/12 47/58/12 48/66/12
f 25/67/1 26/68/1 38/69/1 37/70/1
f 33/71/8 32/59/8 44/62/8 45/72/8
f 30/73/5 29/63/5 41/64/5 42/74/5
f 26/68/13 36/65/13 48/66/13 38/69/13
f 27/40/2 25/67/2 37/70/2 39/41/2
f 34/56/9 33/71/9 45/72/9 46/57/9
f 31/60/6 30/73/6 42/74/6 43/61/6
f 55/75/15 54/76/15 67/77/15 68/78/15
f 47/58/16 46/57/16 58/79/16 59/80/16
f 44/62/17 43/61/17 55/75/17 56/81/17
f 41/64/18 40/42/18 52/54/18 53/82/18
f 48/66/19 47/58/19 59/80/19 60/83/19
f 37/70/20 38/69/20 50/84/20 49/85/20
f 45/72/21 44/62/21 56/81/21 57/86/21
f 42/74/22 41/64/22 53/82/22 54/76/22
f 38/69/23 48/66/23 60/83/23 50/84/23
f 39/41/24 37/70/24 49/85/24 51/53/24
f 46/57/25 45/72/25 57/86/25 58/79/25
f 43/61/26 42/74/26 54/76/26 55/75/26
f 52/54/27 51/53/27 64/87/27 65/88/27
f 59/80/28 58/79/28 71/89/28 72/90/28
f 56/81/29 55/75/29 68/78/29 69/91/29
f 53/82/30 52/54/30 65/88/30 66/92/30
f 60/83/31 59/80/31 72/90/31 73/93/31
f 49/85/32 50/84/32 63/94/32 62/95/32
f 57/86/33 56/81/33 69/91/33 70/96/33
f 54/76/34 53/82/34 66/92/34 67/77/34
f 50/84/35 60/83/35 73/93/35 63/94/35
f 51/53/36 49/85/36 62/95/36 64/87/36
f 58/79/37 57/86/37 70/96/37 71/89/37
f 61/97/38 62/95/38 63/94/38
f 61/97/38 64/87/38 62/95/38
f 61/97/38 65/88/38 64/87/38
f 61/97/38 66/92/38 65/88/38
f 61/97/38 67/77/38 66/92/38
f 61/97/38 68/78/38 67/77/38
f 61/97/38 69/91/38 68/78/38
f 61/97/38 70/96/38 69/91/38
f 61/97/38 71/89/38 70/96/38
f 61/97/38 72/90/38 71/89/38
f 61/97/38 73/93/38 72/90/38
f 61/97/38 63/94/38 73/93/38
