# Blender v2.77 (sub 0) OBJ File: ''
# www.blender.org
o Lever_v2_Lever_Cylinder
v 0.000000 0.000985 -0.042214
v 0.000000 0.909869 -0.035700
v 0.017850 0.909869 -0.030917
v 0.021107 0.000985 -0.036558
v 0.030917 0.909869 -0.017850
v 0.036558 0.000985 -0.021107
v 0.035700 0.909869 0.000000
v 0.042214 0.000985 0.000000
v 0.030917 0.909869 0.017850
v 0.036558 0.000985 0.021107
v 0.017850 0.909869 0.030917
v 0.021107 0.000985 0.036558
v 0.000000 0.909869 0.035700
v 0.000000 0.000985 0.042214
v -0.017850 0.909869 0.030917
v -0.021107 0.000985 0.036558
v -0.030917 0.909869 0.017850
v -0.036558 0.000985 0.021107
v -0.035700 0.909869 0.000000
v -0.042214 0.000985 0.000000
v -0.030917 0.909869 -0.017850
v -0.036558 0.000985 -0.021107
v 0.039873 0.919759 0.023021
v 0.023021 0.919759 0.039873
v -0.017850 0.909869 -0.030917
v -0.021107 0.000985 -0.036558
v 0.000000 0.000985 0.000000
v 0.046042 0.919759 0.000000
v 0.039873 0.919759 -0.023021
v 0.048010 1.352566 -0.027718
v 0.055437 1.352566 0.000000
v -0.023021 0.919759 -0.039873
v 0.000000 0.919759 -0.046042
v 0.023021 0.919759 -0.039873
v -0.039873 0.919759 -0.023021
v -0.046042 0.919759 0.000000
v -0.039873 0.919759 0.023021
v -0.023021 0.919759 0.039873
v 0.000000 0.919759 0.046042
v 0.000000 1.352566 0.055437
v 0.027719 1.352566 0.048010
v 0.019000 1.362341 0.032909
v 0.000000 1.362341 0.038000
v -0.055437 1.352566 0.000000
v -0.048010 1.352566 -0.027718
v -0.027718 1.352566 0.048010
v 0.048010 1.352566 0.027718
v -0.027718 1.352566 -0.048010
v 0.000000 1.352566 -0.055437
v 0.027719 1.352566 -0.048010
v -0.048010 1.352566 0.027718
v 0.000000 1.367516 0.000000
v 0.032909 1.362341 -0.019000
v 0.038000 1.362341 0.000000
v -0.038000 1.362341 0.000000
v -0.032909 1.362341 -0.019000
v -0.019000 1.362341 0.032909
v 0.032909 1.362341 0.019000
v -0.019000 1.362341 -0.032909
v 0.000000 1.362341 -0.038000
v 0.019000 1.362341 -0.032909
v -0.032909 1.362341 0.019000
vt 0.3788 0.9727
vt 0.3685 0.8547
vt 0.3966 0.8516
vt 0.4121 0.9690
vt 0.4247 0.8473
vt 0.4453 0.9639
vt 0.4525 0.8418
vt 0.4781 0.9573
vt 0.4800 0.8350
vt 0.5107 0.9494
vt 0.1129 0.9494
vt 0.1436 0.8350
vt 0.1712 0.8418
vt 0.1455 0.9573
vt 0.1990 0.8473
vt 0.1784 0.9639
vt 0.2270 0.8516
vt 0.2115 0.9690
vt 0.2552 0.8547
vt 0.2448 0.9727
vt 0.2835 0.8566
vt 0.2783 0.9749
vt 0.3118 0.8572
vt 0.3118 0.9756
vt 0.2121 0.2215
vt 0.1583 0.2428
vt 0.1393 0.2148
vt 0.2045 0.1934
vt 0.3402 0.8566
vt 0.3453 0.9749
vt 0.7881 0.9693
vt 0.7506 0.9693
vt 0.7694 0.8994
vt 0.7622 0.1968
vt 0.7007 0.1796
vt 0.7143 0.0894
vt 0.7850 0.1002
vt 0.8021 0.2540
vt 0.7504 0.2247
vt 0.8255 0.2302
vt 0.5798 0.1944
vt 0.5247 0.1917
vt 0.5259 0.1642
vt 0.5823 0.1661
vt 0.6362 0.1997
vt 0.6403 0.1708
vt 0.6938 0.2087
vt 0.4711 0.1914
vt 0.4712 0.1645
vt 0.4188 0.1932
vt 0.4182 0.1669
vt 0.3674 0.1964
vt 0.3659 0.1702
vt 0.3161 0.2017
vt 0.3135 0.1754
vt 0.2646 0.2096
vt 0.2605 0.1827
vt 0.2470 0.1053
vt 0.1895 0.1089
vt 0.1908 0.0681
vt 0.2444 0.0639
vt 0.4134 0.0907
vt 0.4705 0.0861
vt 0.3021 0.0997
vt 0.8798 0.1118
vt 0.5285 0.0834
vt 0.5883 0.0829
vt 0.6502 0.0848
vt 0.3571 0.0946
vt 0.1202 0.1055
vt 0.6714 0.6196
vt 0.6392 0.5639
vt 0.7592 0.5317
vt 0.7201 0.0370
vt 0.7906 0.0419
vt 0.4110 0.0463
vt 0.4688 0.0410
vt 0.2988 0.0575
vt 0.8671 0.0416
vt 0.5282 0.0369
vt 0.5897 0.0348
vt 0.6535 0.0348
vt 0.3544 0.0514
vt 0.1379 0.0616
vt 0.6714 0.4438
vt 0.7271 0.4117
vt 0.8793 0.5639
vt 0.8471 0.6196
vt 0.7271 0.6517
vt 0.6392 0.4995
vt 0.8793 0.4995
vt 0.7914 0.4117
vt 0.8471 0.4438
vt 0.7914 0.6517
vt 0.8205 0.9505
vt 0.8393 0.9181
vt 0.8393 0.8806
vt 0.7182 0.8482
vt 0.7506 0.8294
vt 0.7881 0.8294
vt 0.8205 0.8482
vt 0.6995 0.8806
vt 0.6995 0.9181
vt 0.7182 0.9505
vn 0.2588 0.0069 -0.9659
vn 0.7071 0.0069 -0.7071
vn 0.9659 0.0069 -0.2588
vn 0.9659 0.0069 0.2588
vn 0.7071 0.0069 0.7071
vn 0.2588 0.0069 0.9659
vn -0.2588 0.0069 0.9659
vn -0.7071 0.0069 0.7071
vn -0.9659 0.0069 0.2588
vn -0.9659 0.0069 -0.2588
vn 0.4975 -0.7106 0.4975
vn -0.7071 0.0069 -0.7071
vn -0.2588 0.0069 -0.9659
vn 0.0000 -1.0000 -0.0000
vn 0.9657 -0.0210 -0.2588
vn 0.6796 -0.7106 0.1821
vn -0.1821 -0.7106 -0.6796
vn 0.1821 -0.7106 -0.6796
vn 0.6796 -0.7106 -0.1821
vn -0.4975 -0.7106 -0.4975
vn 0.4975 -0.7106 -0.4975
vn -0.6796 -0.7106 -0.1821
vn -0.6796 -0.7106 0.1821
vn -0.4975 -0.7106 0.4975
vn -0.1821 -0.7106 0.6796
vn 0.1821 -0.7106 0.6796
vn 0.1299 0.8649 0.4849
vn -0.9657 -0.0210 -0.2588
vn -0.2588 -0.0210 0.9657
vn 0.9657 -0.0210 0.2588
vn -0.7070 -0.0210 -0.7070
vn 0.2588 -0.0210 -0.9657
vn -0.7070 -0.0210 0.7070
vn 0.7070 -0.0210 0.7069
vn -0.2588 -0.0210 -0.9657
vn 0.7070 -0.0210 -0.7069
vn -0.9657 -0.0210 0.2588
vn 0.2588 -0.0210 0.9657
vn 0.0361 0.9902 0.1348
vn 0.4849 0.8649 -0.1299
vn -0.4849 0.8649 -0.1299
vn -0.1299 0.8649 0.4849
vn 0.4849 0.8649 0.1299
vn -0.3549 0.8649 -0.3549
vn 0.1299 0.8649 -0.4849
vn -0.3549 0.8649 0.3549
vn 0.3549 0.8649 0.3549
vn -0.1299 0.8649 -0.4849
vn 0.3549 0.8649 -0.3549
vn -0.4849 0.8649 0.1299
vn 0.1349 0.9902 -0.0361
vn -0.1349 0.9902 -0.0361
vn -0.0361 0.9902 0.1348
vn 0.1349 0.9902 0.0361
vn -0.0987 0.9902 -0.0987
vn 0.0361 0.9902 -0.1348
vn -0.0987 0.9902 0.0987
vn 0.0987 0.9902 0.0987
vn -0.0361 0.9902 -0.1348
vn 0.0987 0.9902 -0.0987
vn -0.1349 0.9902 0.0361
s 1
f 1/1/1 2/2/1 3/3/1 4/4/1
f 4/4/2 3/3/2 5/5/2 6/6/2
f 6/6/3 5/5/3 7/7/3 8/8/3
f 8/8/4 7/7/4 9/9/4 10/10/4
f 10/11/5 9/12/5 11/13/5 12/14/5
f 12/14/6 11/13/6 13/15/6 14/16/6
f 14/16/7 13/15/7 15/17/7 16/18/7
f 16/18/8 15/17/8 17/19/8 18/20/8
f 18/20/9 17/19/9 19/21/9 20/22/9
f 20/22/10 19/21/10 21/23/10 22/24/10
f 11/25/11 9/26/11 23/27/11 24/28/11
f 22/24/12 21/23/12 25/29/12 26/30/12
f 26/30/13 25/29/13 2/2/13 1/1/13
f 14/31/14 16/32/14 27/33/14
f 28/34/15 29/35/15 30/36/15 31/37/15
f 9/38/16 7/39/16 28/34/16 23/40/16
f 2/41/17 25/42/17 32/43/17 33/44/17
f 3/45/18 2/41/18 33/44/18 34/46/18
f 7/39/19 5/47/19 29/35/19 28/34/19
f 25/42/20 21/48/20 35/49/20 32/43/20
f 5/47/21 3/45/21 34/46/21 29/35/21
f 21/48/22 19/50/22 36/51/22 35/49/22
f 19/50/23 17/52/23 37/53/23 36/51/23
f 17/52/24 15/54/24 38/55/24 37/53/24
f 15/54/25 13/56/25 39/57/25 38/55/25
f 13/56/26 11/25/26 24/28/26 39/57/26
f 40/58/27 41/59/27 42/60/27 43/61/27
f 35/49/28 36/51/28 44/62/28 45/63/28
f 38/55/29 39/57/29 40/58/29 46/64/29
f 23/40/30 28/34/30 31/37/30 47/65/30
f 32/43/31 35/49/31 45/63/31 48/66/31
f 34/46/32 33/44/32 49/67/32 50/68/32
f 37/53/33 38/55/33 46/64/33 51/69/33
f 24/28/34 23/27/34 47/70/34 41/59/34
f 33/44/35 32/43/35 48/66/35 49/67/35
f 29/35/36 34/46/36 50/68/36 30/36/36
f 36/51/37 37/53/37 51/69/37 44/62/37
f 39/57/38 24/28/38 41/59/38 40/58/38
f 43/71/39 42/72/39 52/73/39
f 31/37/40 30/36/40 53/74/40 54/75/40
f 45/63/41 44/62/41 55/76/41 56/77/41
f 46/64/42 40/58/42 43/61/42 57/78/42
f 47/65/43 31/37/43 54/75/43 58/79/43
f 48/66/44 45/63/44 56/77/44 59/80/44
f 50/68/45 49/67/45 60/81/45 61/82/45
f 51/69/46 46/64/46 57/78/46 62/83/46
f 41/59/47 47/70/47 58/84/47 42/60/47
f 49/67/48 48/66/48 59/80/48 60/81/48
f 30/36/49 50/68/49 61/82/49 53/74/49
f 44/62/50 51/69/50 62/83/50 55/76/50
f 54/85/51 53/86/51 52/73/51
f 56/87/52 55/88/52 52/73/52
f 57/89/53 43/71/53 52/73/53
f 58/90/54 54/85/54 52/73/54
f 59/91/55 56/87/55 52/73/55
f 61/92/56 60/93/56 52/73/56
f 62/94/57 57/89/57 52/73/57
f 42/72/58 58/90/58 52/73/58
f 60/93/59 59/91/59 52/73/59
f 53/86/60 61/92/60 52/73/60
f 55/88/61 62/94/61 52/73/61
f 12/95/14 14/31/14 27/33/14
f 10/96/14 12/95/14 27/33/14
f 8/97/14 10/96/14 27/33/14
f 26/98/14 1/99/14 27/33/14
f 1/99/14 4/100/14 27/33/14
f 6/101/14 8/97/14 27/33/14
f 22/102/14 26/98/14 27/33/14
f 4/100/14 6/101/14 27/33/14
f 20/103/14 22/102/14 27/33/14
f 18/104/14 20/103/14 27/33/14
f 16/32/14 18/104/14 27/33/14
