# Blender v2.77 (sub 0) OBJ File: 'gate1.blend'
# www.blender.org
mtllib Machine_Button_Grate.mtl
o Cube.037_Cube.056
v -1.402272 -0.204962 -0.491948
v -1.402272 0.130299 -0.491948
v -1.402272 -0.204962 -0.867444
v -1.402272 0.130299 -0.867444
v 1.818883 -0.204962 -0.491948
v 1.818883 0.130299 -0.491948
v 1.818883 -0.204962 -0.867444
v 1.818883 0.130299 -0.867444
v -1.402272 -1.001091 -0.491948
v -1.402272 -0.665830 -0.491948
v -1.402272 -1.001091 -0.867444
v -1.402272 -0.665830 -0.867444
v 1.818883 -1.001090 -0.491948
v 1.818883 -0.665830 -0.491948
v 1.818883 -1.001090 -0.867444
v 1.818883 -0.665830 -0.867444
v -1.402272 -1.863615 -0.491948
v -1.402272 -1.528354 -0.491948
v -1.402272 -1.863615 -0.867444
v -1.402272 -1.528354 -0.867444
v 1.818883 -1.863615 -0.491948
v 1.818883 -1.528354 -0.491948
v 1.818883 -1.863615 -0.867444
v 1.818883 -1.528354 -0.867444
v -1.402272 0.651860 -0.491948
v -1.402272 0.987121 -0.491948
v -1.402272 0.651860 -0.867444
v -1.402272 0.987121 -0.867444
v 1.818883 0.651860 -0.491948
v 1.818883 0.987121 -0.491948
v 1.818883 0.651860 -0.867444
v 1.818883 0.987121 -0.867444
v -1.402271 1.514384 -0.491948
v -1.402271 1.849645 -0.491948
v -1.402271 1.514384 -0.867444
v -1.402271 1.849645 -0.867444
v 1.818884 1.514384 -0.491948
v 1.818884 1.849645 -0.491948
v 1.818884 1.514384 -0.867444
v 1.818884 1.849645 -0.867444
v -1.402271 2.310513 -0.491948
v -1.402271 2.645773 -0.491948
v -1.402271 2.310513 -0.867444
v -1.402271 2.645773 -0.867444
v 1.818884 2.310513 -0.491948
v 1.818884 2.645773 -0.491948
v 1.818884 2.310513 -0.867444
v 1.818884 2.645773 -0.867444
v -1.588229 -2.520591 -0.580504
v -1.588229 3.241692 -0.580504
v -1.588229 -2.520591 -0.956000
v -1.588229 3.241692 -0.956000
v 2.004840 -2.520591 -0.580504
v 2.004840 3.241692 -0.580504
v 2.004840 -2.520591 -0.956000
v 2.004840 3.241692 -0.956000
vn -1.0000 0.0000 0.0000
vn 0.0000 0.0000 -1.0000
vn 1.0000 0.0000 0.0000
vn 0.0000 0.0000 1.0000
vn 0.0000 -1.0000 0.0000
vn 0.0000 1.0000 0.0000
usemtl None
s off
f 2//1 4//1 3//1 1//1
f 4//2 8//2 7//2 3//2
f 8//3 6//3 5//3 7//3
f 6//4 2//4 1//4 5//4
f 1//5 3//5 7//5 5//5
f 6//6 8//6 4//6 2//6
f 10//1 12//1 11//1 9//1
f 12//2 16//2 15//2 11//2
f 16//3 14//3 13//3 15//3
f 14//4 10//4 9//4 13//4
f 9//5 11//5 15//5 13//5
f 14//6 16//6 12//6 10//6
f 18//1 20//1 19//1 17//1
f 20//2 24//2 23//2 19//2
f 24//3 22//3 21//3 23//3
f 22//4 18//4 17//4 21//4
f 17//5 19//5 23//5 21//5
f 22//6 24//6 20//6 18//6
f 26//1 28//1 27//1 25//1
f 28//2 32//2 31//2 27//2
f 32//3 30//3 29//3 31//3
f 30//4 26//4 25//4 29//4
f 25//5 27//5 31//5 29//5
f 30//6 32//6 28//6 26//6
f 34//1 36//1 35//1 33//1
f 36//2 40//2 39//2 35//2
f 40//3 38//3 37//3 39//3
f 38//4 34//4 33//4 37//4
f 33//5 35//5 39//5 37//5
f 38//6 40//6 36//6 34//6
f 42//1 44//1 43//1 41//1
f 44//2 48//2 47//2 43//2
f 48//3 46//3 45//3 47//3
f 46//4 42//4 41//4 45//4
f 41//5 43//5 47//5 45//5
f 46//6 48//6 44//6 42//6
f 50//1 52//1 51//1 49//1
f 52//2 56//2 55//2 51//2
f 56//3 54//3 53//3 55//3
f 54//4 50//4 49//4 53//4
f 49//5 51//5 55//5 53//5
f 54//6 56//6 52//6 50//6
